<svg xmlns="http://www.w3.org/2000/svg" viewBox="0 0 512 512" fill="none">
  <defs>
    <linearGradient id="bg" x1="64" y1="64" x2="448" y2="448" gradientUnits="userSpaceOnUse">
      <stop stop-color="#ef4456"/>
      <stop offset="0.45" stop-color="#d42337"/>
      <stop offset="1" stop-color="#b01828"/>
    </linearGradient>
    <filter id="shadow" x="-20%" y="-20%" width="140%" height="140%">
      <feDropShadow dx="0" dy="4" stdDeviation="6" flood-color="#000" flood-opacity="0.35"/>
    </filter>
  </defs>
  <rect width="512" height="512" rx="112" fill="url(#bg)"/>
  <rect x="8" y="8" width="496" height="496" rx="104" stroke="#fff" stroke-opacity="0.14" stroke-width="4"/>
  <g stroke="#fff" stroke-opacity="0.42" stroke-width="5" stroke-linecap="round">
    <line x1="102" y1="102" x2="410" y2="102"/>
    <line x1="102" y1="179" x2="410" y2="179"/>
    <line x1="102" y1="256" x2="410" y2="256"/>
    <line x1="102" y1="333" x2="410" y2="333"/>
    <line x1="102" y1="410" x2="410" y2="410"/>
    <line x1="102" y1="102" x2="102" y2="410"/>
    <line x1="179" y1="102" x2="179" y2="410"/>
    <line x1="256" y1="102" x2="256" y2="410"/>
    <line x1="333" y1="102" x2="333" y2="410"/>
    <line x1="410" y1="102" x2="410" y2="410"/>
  </g>
  <circle cx="256" cy="256" r="8" fill="#fff" fill-opacity="0.5"/>
  <circle cx="179" cy="179" r="26" fill="#f8f8fa" filter="url(#shadow)"/>
  <circle cx="333" cy="256" r="26" fill="#f4f4f6" stroke="#d8d8dc" stroke-width="2"/>
  <circle cx="102" cy="256" r="27" fill="#18181b" filter="url(#shadow)"/>
  <circle cx="179" cy="256" r="27" fill="#18181b"/>
  <circle cx="256" cy="256" r="27" fill="#18181b"/>
  <circle cx="333" cy="179" r="28" fill="#141416" filter="url(#shadow)"/>
  <circle cx="318" cy="164" r="7" fill="#fff" fill-opacity="0.2"/>
</svg>
